<?xml version="1.0" encoding="UTF-8"?>
<svg version="1.1" xmlns="http://www.w3.org/2000/svg" width="497" height="497">
<path d="M0 0 C1.01707031 0.21430664 2.03414063 0.42861328 3.08203125 0.64941406 C45.63432128 9.84231446 86.77431099 30.0961898 118.28515625 60.40234375 C120.50847996 62.52969665 122.76511884 64.52947549 125.125 66.5 C161.65950521 98.38188555 185.18273765 148.40860154 195 195 C195.31759277 196.46759766 195.31759277 196.46759766 195.64160156 197.96484375 C202.01447805 228.7081655 201.63295849 263.34906852 195 294 C194.78569336 295.01707031 194.57138672 296.03414063 194.35058594 297.08203125 C185.15768554 339.63432128 164.9038102 380.77431099 134.59765625 412.28515625 C132.47030335 414.50847996 130.47052451 416.76511884 128.5 419.125 C96.61811445 455.65950521 46.59139846 479.18273765 0 489 C-1.46759766 489.31759277 -1.46759766 489.31759277 -2.96484375 489.64160156 C-33.7081655 496.01447805 -68.34906852 495.63295849 -99 489 C-100.52560547 488.67854004 -100.52560547 488.67854004 -102.08203125 488.35058594 C-144.63432128 479.15768554 -185.77431099 458.9038102 -217.28515625 428.59765625 C-219.50847996 426.47030335 -221.76511884 424.47052451 -224.125 422.5 C-260.65950521 390.61811445 -284.18273765 340.59139846 -294 294 C-294.31759277 292.53240234 -294.31759277 292.53240234 -294.64160156 291.03515625 C-301.01447805 260.2918345 -300.63295849 225.65093148 -294 195 C-293.78569336 193.98292969 -293.57138672 192.96585938 -293.35058594 191.91796875 C-284.15768554 149.36567872 -263.9038102 108.22568901 -233.59765625 76.71484375 C-231.47030335 74.49152004 -229.47052451 72.23488116 -227.5 69.875 C-195.61811445 33.34049479 -145.59139846 9.81726235 -99 0 C-97.53240234 -0.31759277 -97.53240234 -0.31759277 -96.03515625 -0.64160156 C-65.2918345 -7.01447805 -30.65093148 -6.63295849 0 0 Z " fill="#FDFDFD" transform="translate(298,4)"/>
<path d="M0 0 C1.134375 0.37382813 2.26875 0.74765625 3.4375 1.1328125 C14.8257747 5.18854241 24.75933462 11.26009962 34 19 C34.72703125 19.58136719 35.4540625 20.16273438 36.203125 20.76171875 C51.27480967 33.33023901 61.32837806 51.4362575 67 70 C67.35191406 71.12277344 67.70382812 72.24554688 68.06640625 73.40234375 C74.90376707 99.75049988 70.25643093 130.53188365 56.79296875 153.99609375 C46.71997996 170.54963777 33.93824791 183.54230201 17 193 C16.02160156 193.556875 15.04320312 194.11375 14.03515625 194.6875 C-5.8033449 205.33904424 -31.78844417 207.37005397 -53.55078125 202.109375 C-82.27252605 192.87157713 -103.92332001 173.60131577 -118 147 C-123.93428038 134.86903909 -127.76833265 120.48634959 -128 107 C-128.01901367 106.32469238 -128.03802734 105.64938477 -128.05761719 104.95361328 C-128.87828428 74.21895816 -119.23071266 47.94115107 -98.265625 25.3359375 C-73.05092529 -0.66128737 -34.84342967 -11.89965344 0 0 Z " fill="#FCFBFB" transform="translate(280,115)"/>
<path d="M0 0 C-0.37511719 0.78117187 -0.75023437 1.56234375 -1.13671875 2.3671875 C-14.50978697 32.61659623 -13.14726312 66.31044917 -5.8125 97.9375 C-2.16133184 113.98190236 -3.84040152 127.52120456 -9 143 C-10.5237782 161.56501917 -8.36441447 178.27117106 0 195 C0.33 195.66 0.66 196.32 1 197 C-6.33934415 197.22353332 -12.93231361 197.01602858 -20 195 C-20.95132813 194.75507813 -21.90265625 194.51015625 -22.8828125 194.2578125 C-36.9445953 190.35368116 -49.29985317 183.97389252 -60 174 C-60.94746094 173.12085938 -61.89492187 172.24171875 -62.87109375 171.3359375 C-76.80819218 157.90942477 -86.84536855 140.96492385 -91 122 C-91.17370117 121.29415771 -91.34740234 120.58831543 -91.52636719 119.86108398 C-97.47181379 93.89877057 -92.42852726 66.94782199 -78.75512695 44.41186523 C-65.96796002 24.19383223 -46.84583955 8.21488273 -23.671875 1.59375 C-15.91456355 -0.13009699 -7.91113879 -0.13185231 0 0 Z " fill="#FCFCFC" transform="translate(251,117)"/>
<path d="M0 0 C1.134375 0.37382813 2.26875 0.74765625 3.4375 1.1328125 C14.8257747 5.18854241 24.75933462 11.26009962 34 19 C34.72703125 19.58136719 35.4540625 20.16273438 36.203125 20.76171875 C51.27480967 33.33023901 61.32837806 51.4362575 67 70 C67.35191406 71.12277344 67.70382812 72.24554688 68.06640625 73.40234375 C74.90376707 99.75049988 70.25643093 130.53188365 56.79296875 153.99609375 C46.71997996 170.54963777 33.93824791 183.54230201 17 193 C16.02160156 193.556875 15.04320312 194.11375 14.03515625 194.6875 C-5.8033449 205.33904424 -31.78844417 207.37005397 -53.55078125 202.109375 C-82.27252605 192.87157713 -103.92332001 173.60131577 -118 147 C-123.93428038 134.86903909 -127.76833265 120.48634959 -128 107 C-128.01901367 106.32469238 -128.03802734 105.64938477 -128.05761719 104.95361328 C-128.87828428 74.21895816 -119.23071266 47.94115107 -98.265625 25.3359375 C-73.05092529 -0.66128737 -34.84342967 -11.89965344 0 0 Z M-53 4 C-54.39025391 4.43505859 -54.39025391 4.43505859 -55.80859375 4.87890625 C-81.35116618 13.53801946 -100.51438892 31.54626716 -112.875 55.25 C-119.49544585 69.42334886 -122.5679038 83.66614713 -122.4375 99.3125 C-122.43137695 100.57562012 -122.42525391 101.83874023 -122.41894531 103.14013672 C-122.25555513 112.94480466 -121.04278886 121.70258961 -118 131 C-117.71125 131.969375 -117.4225 132.93875 -117.125 133.9375 C-109.14766082 158.43932747 -90.94174709 178.53380253 -68.1875 190.1875 C-47.37939706 200.51067192 -24.06115126 202.28977172 -2 195 C-0.8965625 194.649375 0.206875 194.29875 1.34375 193.9375 C25.45364115 185.51074193 43.72697769 167.7281613 55 145 C66.69741534 120.14636924 69.19057468 92.15700656 60 66 C55.7988656 55.09774582 50.51728529 44.99441723 43 36 C42.33742188 35.17628906 41.67484375 34.35257813 40.9921875 33.50390625 C25.9423634 15.70512904 4.20109399 3.86040885 -19 1 C-30.58742095 0.36007107 -41.86340726 0.43077564 -53 4 Z " fill="#2F2725" transform="translate(280,115)"/>
<path d="M0 0 C1.8125 0.515625 1.8125 0.515625 4 2 C5.21735993 4.61732385 6.14448139 7.01426232 7 9.75 C7.25346191 10.54494873 7.50692383 11.33989746 7.76806641 12.15893555 C16.53882959 40.87915786 16.03011968 70.70748393 7.8671875 99.5625 C4.96148812 111.08058762 5.89852768 120.54175432 9 131.875 C14.31762809 152.77533663 12.63319188 171.15816824 4 191 C3.34 191.99 2.68 192.98 2 194 C1.34 194 0.68 194 0 194 C-9.04303921 175.91392158 -13.14489623 153.95070251 -7.0625 134.25 C-6.37984754 132.49810335 -5.69300756 130.7478263 -5 129 C-2.30147754 118.72485677 -3.4357139 107.15385552 -5.8125 96.9375 C-13.10491107 65.5680383 -15.54086562 29.37277006 0 0 Z " fill="#271E1C" transform="translate(250,118)"/>
<path d="M0 0 C0.66 0 1.32 0 2 0 C0.36410394 3.48879873 -1.66675274 6.63708469 -3.75 9.875 C-19.21705039 34.75921933 -23.07013713 63.68134623 -16.49682617 92.18164062 C-13.25938431 104.54876249 -7.88239753 116.15780436 -0.9375 126.875 C-0.298125 127.90625 0.34125 128.9375 1 130 C0.67 130.66 0.34 131.32 0 132 C-18.84184122 117.83917871 -35.77515811 101.69380824 -49.76513672 82.67626953 C-50.6119843 81.52671329 -51.46554256 80.38207933 -52.32470703 79.24169922 C-53.62910163 77.50616286 -54.91094478 75.75607981 -56.1875 74 C-56.94417969 72.96875 -57.70085937 71.9375 -58.48046875 70.875 C-60 68 -60 68 -60.0703125 65.62109375 C-58.4738419 61.71148874 -56.15795103 58.47142279 -53.6875 55.0625 C-53.14552979 54.30888184 -52.60355957 53.55526367 -52.04516602 52.77880859 C-38.71568562 34.48238351 -22.78519291 17.44529437 -4.58984375 3.93359375 C-2.00316139 2.09887782 -2.00316139 2.09887782 0 0 Z " fill="#261D1B" transform="translate(156,148)"/>
<path d="M0 0 C22.83702829 10.24668572 42.92354322 35.96308367 56.65283203 56.0625 C57.5101021 57.29542774 58.39911667 58.50729946 59.32763672 59.6875 C60.49609375 61.21875 60.49609375 61.21875 62 64 C61.16194741 68.32653166 58.2503404 71.79010319 55.6875 75.3125 C55.24728516 75.91932617 54.80707031 76.52615234 54.35351562 77.15136719 C39.28230244 97.70397432 22.07914871 116.47880867 1 131 C1 127.28470876 2.04233005 126.16335399 4.125 123.125 C19.02003657 100.24189947 24.27513182 73.37750597 19.74609375 46.515625 C16.12424381 29.44931639 9.33462182 14.70910105 0 0 Z " fill="#261C1A" transform="translate(345,149)"/>
<path d="M0 0 C0 3 0 3 -2.73828125 5.8828125 C-3.92198147 6.97197648 -5.11377742 8.0523917 -6.3125 9.125 C-6.90740234 9.67542969 -7.50230469 10.22585938 -8.11523438 10.79296875 C-12.59100275 14.86366758 -12.59100275 14.86366758 -16 16 C-16.69405437 17.31928418 -17.35710254 18.65504458 -18 20 C-19.64477539 21.84008789 -19.64477539 21.84008789 -21.59765625 23.72265625 C-22.67019653 24.76993896 -22.67019653 24.76993896 -23.7644043 25.83837891 C-24.52277588 26.57233887 -25.28114746 27.30629883 -26.0625 28.0625 C-32.53083461 34.4179008 -38.42530884 40.84460636 -44 48 C-45.97743862 50.3538966 -47.98652126 52.6767553 -50 55 C-50.99 54.67 -51.98 54.34 -53 54 C-48.07939055 47.77653414 -43.07480621 41.84928793 -37.3359375 36.36328125 C-35.43186598 34.43692127 -33.67852797 32.48692425 -31.91796875 30.43359375 C-27.62521698 25.48657137 -23.03172276 20.84564337 -18.40209961 16.21679688 C-16.93116703 14.74365752 -15.46845754 13.26265893 -14.00585938 11.78125 C-13.05517739 10.82763637 -12.10402187 9.87449452 -11.15234375 8.921875 C-10.30663818 8.07206055 -9.46093262 7.22224609 -8.58959961 6.34667969 C-5.85202695 3.86590771 -3.11648518 1.96950272 0 0 Z " fill="#413D3E" transform="translate(311,350)"/>
<path d="M0 0 C0.495 0.99 0.495 0.99 1 2 C0.43152344 2.4125 -0.13695312 2.825 -0.72265625 3.25 C-6.22341429 7.36408948 -10.68885002 11.66932131 -15 17 C-15.61359375 17.73863281 -16.2271875 18.47726562 -16.859375 19.23828125 C-27.78452179 32.58881063 -37.53007063 46.97821943 -46 62 C-46.66 62 -47.32 62 -48 62 C-44.587233 50.19751413 -35.47981786 39.55026403 -28.25292969 29.70703125 C-27.42931966 28.58491876 -26.60953412 27.45998728 -25.79394531 26.33203125 C-20.9952024 19.7136176 -15.88882197 13.61838776 -10.125 7.8125 C-9.57739014 7.25941162 -9.02978027 6.70632324 -8.46557617 6.13647461 C-5.83489609 3.55286516 -3.45958847 1.36210851 0 0 Z " fill="#43413F" transform="translate(356,345)"/>
<path d="M0 0 C7 1 7 1 10.15625 1.5 C14.58391275 2.07595613 18.98049028 2.34342055 23.4375 2.5625 C24.67790039 2.62727539 24.67790039 2.62727539 25.94335938 2.69335938 C27.96209549 2.79838033 29.98102951 2.89958559 32 3 C31.34 4.32 30.68 5.64 30 7 C30.66 7.33 31.32 7.66 32 8 C28.83341337 8.05880804 25.66697007 8.09386406 22.5 8.125 C21.613125 8.14175781 20.72625 8.15851563 19.8125 8.17578125 C12.96534262 8.226128 6.85518106 7.90345404 1 4 C0.3125 1.875 0.3125 1.875 0 0 Z " fill="#271E1C" transform="translate(226,311)"/>
<path d="M0 0 C0.66 0 1.32 0 2 0 C0.42491141 3.66379303 -1.84193573 6.29851305 -4.5 9.25 C-5.2940625 10.14203125 -6.088125 11.0340625 -6.90625 11.953125 C-9 14 -9 14 -11 14 C-11 14.66 -11 15.32 -11 16 C-11.66 16 -12.32 16 -13 16 C-13.32677734 16.79083984 -13.32677734 16.79083984 -13.66015625 17.59765625 C-15.50333985 20.90248982 -17.95241546 23.60867538 -20.4375 26.4375 C-21.52246269 27.68851832 -22.60709042 28.93982722 -23.69140625 30.19140625 C-24.51729248 31.14104248 -24.51729248 31.14104248 -25.35986328 32.10986328 C-31.81905998 39.55361154 -38.20883576 47.01758442 -44 55 C-44.66 54.67 -45.32 54.34 -46 54 C-40.73399055 46.41075109 -35.02222299 39.40684747 -28.97265625 32.44140625 C-24.12626386 26.85782495 -19.4458877 21.13109928 -14.89453125 15.3046875 C-13 13 -13 13 -10.6875 11.1875 C-6.993234 8.1805393 -4.07933256 4.61738798 -1 1 C-0.67 0.67 -0.34 0.34 0 0 Z " fill="#454140" transform="translate(243,347)"/>
<path d="M0 0 C0.66 0.33 1.32 0.66 2 1 C2.3890524 12.18974554 2.66644007 23.2488863 0.3125 34.25 C0.16393555 34.9929834 0.01537109 35.7359668 -0.13769531 36.50146484 C-0.9701506 39.96568437 -1.61372172 41.70756676 -4.4921875 43.88671875 C-5.31976563 44.25410156 -6.14734375 44.62148438 -7 45 C-8.2065625 45.7734375 -8.2065625 45.7734375 -9.4375 46.5625 C-13.90304885 49.06756399 -17.86857263 50.30184867 -23 50 C-23 49.34 -23 48.68 -23 48 C-22.11957031 47.74605469 -21.23914063 47.49210937 -20.33203125 47.23046875 C-19.17058594 46.88628906 -18.00914062 46.54210937 -16.8125 46.1875 C-15.66394531 45.85105469 -14.51539063 45.51460938 -13.33203125 45.16796875 C-10.12981038 44.04550211 -7.66318283 43.10100828 -5 41 C-3.7879296 38.31622592 -3.7879296 38.31622592 -3.25 35.25 C-2.91742188 33.74179687 -2.91742188 33.74179687 -2.578125 32.203125 C-1.27300168 24.97203631 -0.72845126 17.89351779 -0.4375 10.5625 C-0.39431641 9.54478516 -0.35113281 8.52707031 -0.30664062 7.47851562 C-0.20131418 4.98578972 -0.09918328 2.49297662 0 0 Z " fill="#444140" transform="translate(183,357)"/>
<path d="M0 0 C8.25 0 16.5 0 25 0 C24.67 1.32 24.34 2.64 24 4 C21.59940183 5.20029908 20.10639351 5.11459743 17.4296875 5.09765625 C16.53378906 5.09443359 15.63789063 5.09121094 14.71484375 5.08789062 C13.77769531 5.07951172 12.84054688 5.07113281 11.875 5.0625 C10.93011719 5.05798828 9.98523438 5.05347656 9.01171875 5.04882812 C6.67441613 5.03702357 4.33723939 5.02055759 2 5 C1.34 3.35 0.68 1.7 0 0 Z " fill="#271F1D" transform="translate(239,111)"/>
<path d="M0 0 C2.31 0 4.62 0 7 0 C12.29750164 10.59500329 5.63933456 30.09664206 2.84375 40.99609375 C2 43 2 43 -1 45 C-0.34657136 39.79979707 0.69392548 34.82286917 2 29.75 C2.17789062 29.04359375 2.35578125 28.3371875 2.5390625 27.609375 C3.27663109 24.7031346 4.0514979 21.84550631 5 19 C5.14403348 17.66636297 5.24590423 16.32781954 5.31640625 14.98828125 C5.35830078 14.23095703 5.40019531 13.47363281 5.44335938 12.69335938 C5.48267578 11.90767578 5.52199219 11.12199219 5.5625 10.3125 C5.62727539 9.11657227 5.62727539 9.11657227 5.69335938 7.89648438 C5.79927368 5.93118553 5.90012551 3.96561504 6 2 C4.02 2 2.04 2 0 2 C0 1.34 0 0.68 0 0 Z " fill="#413D3D" transform="translate(347,360)"/>
<path d="M0 0 C4.76350585 0.71452588 9.34201396 1.79534844 14 3 C13.95875 3.78375 13.9175 4.5675 13.875 5.375 C13.71271266 8.16116119 13.71271266 8.16116119 16 10 C9.81839396 9.46246904 4.673142 7.45417612 -1 5 C-0.67 3.35 -0.34 1.7 0 0 Z " fill="#362D2B" transform="translate(214,307)"/>
<path d="M0 0 C-1.54917342 3.71758841 -3.82403738 6.04082656 -6.68359375 8.84375 C-7.61107422 9.76027344 -8.53855469 10.67679687 -9.49414062 11.62109375 C-10.47490709 12.58109027 -11.45603038 13.54072238 -12.4375 14.5 C-14.35616991 16.38212078 -16.27052927 18.26840983 -18.18359375 20.15625 C-19.03493896 20.98962891 -19.88628418 21.82300781 -20.76342773 22.68164062 C-22.70889279 24.69824756 -24.38598027 26.71519748 -26 29 C-26.66 28.67 -27.32 28.34 -28 28 C-25.30196196 23.72189548 -22.45897182 20.20247129 -18.8671875 16.6015625 C-18.38927765 16.1217392 -17.9113678 15.64191589 -17.41897583 15.14755249 C-16.41800163 14.14522808 -15.41454067 13.14538133 -14.40869141 12.14794922 C-12.86510168 10.61517101 -11.33260074 9.07187544 -9.80078125 7.52734375 C-8.82355813 6.55144058 -7.84571567 5.5761571 -6.8671875 4.6015625 C-5.98144043 3.71807129 -5.09569336 2.83458008 -4.18310547 1.92431641 C-2 0 -2 0 0 0 Z " fill="#3F3C3A" transform="translate(181,364)"/>
<path d="M0 0 C0.66 0 1.32 0 2 0 C1.43434519 7.67846322 0.8123221 15.34343208 0 23 C4.74215599 20.83610358 8.40820214 18.86809 12 15 C12.66 15 13.32 15 14 15 C12.60068938 18.30093787 11.03783328 20.09181266 8.1875 22.25 C7.52105469 22.77078125 6.85460937 23.2915625 6.16796875 23.828125 C3.57600014 25.22918911 1.90596733 25.29602384 -1 25 C-2.64163039 23.35836961 -2.17115578 21.51204021 -2.1875 19.25 C-2.14459784 12.72029174 -1.14249641 6.41634144 0 0 Z " fill="#4C4847" transform="translate(229,377)"/>
<path d="M0 0 C0.33 0.66 0.66 1.32 1 2 C0.43152344 2.4125 -0.13695312 2.825 -0.72265625 3.25 C-6.21438904 7.35733938 -10.67826525 11.69166576 -15 17 C-15.97872528 18.16703698 -16.95784466 19.33374364 -17.9375 20.5 C-18.9584375 21.7375 -18.9584375 21.7375 -20 23 C-20.99 22.67 -21.98 22.34 -23 22 C-11.46819307 9.40779703 -11.46819307 9.40779703 -7 4.8125 C-6.505 4.30332031 -6.01 3.79414063 -5.5 3.26953125 C-3.78712288 1.81983056 -2.03660117 0.92612682 0 0 Z " fill="#4C494A" transform="translate(356,345)"/>
<path d="M0 0 C0.66 0 1.32 0 2 0 C0.32916518 4.00223223 -2.43295416 7.02106969 -5.25 10.25 C-9.36890638 15.03639981 -13.28935869 19.88533225 -17 25 C-17.66 24.67 -18.32 24.34 -19 24 C-14.61321757 17.72778099 -10.03444519 11.68190618 -5.125 5.8125 C-4.41089966 4.94782104 -4.41089966 4.94782104 -3.68237305 4.06567383 C-2.5008343 2.670234 -1.25540538 1.32937708 0 0 Z " fill="#413F3E" transform="translate(216,377)"/>
<path d="M0 0 C0 0.99 0 1.98 0 3 C-1.0621875 2.97679687 -2.124375 2.95359375 -3.21875 2.9296875 C-13.75490165 2.75383769 -13.75490165 2.75383769 -24 5 C-23.67 4.01 -23.34 3.02 -23 2 C-15.6136199 -0.80682444 -7.77829163 -0.18230371 0 0 Z " fill="#41403F" transform="translate(181,349)"/>
<path d="M0 0 C2 3 2 3 1.75 5.625 C1.5025 6.73875 1.255 7.8525 1 9 C0.86335938 9.76570313 0.72671875 10.53140625 0.5859375 11.3203125 C0.43382812 12.12210937 0.28171875 12.92390625 0.125 13.75 C-0.01679688 14.50796875 -0.15859375 15.2659375 -0.3046875 16.046875 C-1 18 -1 18 -4 20 C-3.21085905 13.21338787 -1.58725189 6.63850633 0 0 Z " fill="#4E4B4A" transform="translate(350,385)"/>
<path d="M0 0 C0.33 0 0.66 0 1 0 C1.28323789 5.00386946 0.78364963 7.07154555 -2.515625 10.98046875 C-5.24635933 13.76134938 -8.09808188 16.39926943 -11 19 C-11.66 18.67 -12.32 18.34 -13 18 C-12.21753906 17.22914063 -11.43507812 16.45828125 -10.62890625 15.6640625 C-9.60663943 14.65117427 -8.58451119 13.63814616 -7.5625 12.625 C-7.04623047 12.11710937 -6.52996094 11.60921875 -5.99804688 11.0859375 C-3.142867 8.31431064 -3.142867 8.31431064 -1 5 C-1.99 5.33 -2.98 5.66 -4 6 C-3.67 5.01 -3.34 4.02 -3 3 C-2.01 3 -1.02 3 0 3 C0 2.01 0 1.02 0 0 Z " fill="#E9E7E6" transform="translate(182,359)"/>
<path d="M0 0 C0.66 0 1.32 0 2 0 C0.47987323 5.40489519 -3.27385218 8.98492628 -7 13 C-7.99 12.67 -8.98 12.34 -10 12 C-8.52149287 10.18696196 -7.04217625 8.37458402 -5.5625 6.5625 C-4.32693359 5.04849609 -4.32693359 5.04849609 -3.06640625 3.50390625 C-1 1 -1 1 0 0 Z " fill="#494646" transform="translate(268,392)"/>
<path d="M0 0 C-1.39931062 3.30093787 -2.96216672 5.09181266 -5.8125 7.25 C-6.47894531 7.77078125 -7.14539063 8.2915625 -7.83203125 8.828125 C-10.40318024 10.21793527 -12.11943184 10.22119546 -15 10 C-15 9.34 -15 8.68 -15 8 C-13.96875 7.608125 -12.9375 7.21625 -11.875 6.8125 C-9.08677995 5.6361313 -6.97029911 4.29656244 -4.6875 2.3125 C-2 0 -2 0 0 0 Z " fill="#373533" transform="translate(243,392)"/>
<path d="M0 0 C0.99 0.33 1.98 0.66 3 1 C2.45730469 1.53109375 1.91460937 2.0621875 1.35546875 2.609375 C0.28232422 3.66898437 0.28232422 3.66898437 -0.8125 4.75 C-1.87404297 5.79414063 -1.87404297 5.79414063 -2.95703125 6.859375 C-4.82275879 8.81428645 -6.43169642 10.80338553 -8 13 C-8.66 12.67 -9.32 12.34 -10 12 C-7.11954533 7.34695784 -3.96084779 3.78080926 0 0 Z " fill="#474544" transform="translate(163,380)"/>
<path d="M0 0 C3.43595166 1.52708963 6.11912454 3.59927045 9 6 C8.67 7.65 8.34 9.3 8 11 C4.32966073 7.72291137 2.30718811 4.28477792 0 0 Z " fill="#383332" transform="translate(345,149)"/>
<path d="M0 0 C3.375 -0.125 3.375 -0.125 7 0 C7.66 0.66 8.32 1.32 9 2 C8.67 2.99 8.34 3.98 8 5 C5.125 4.75 5.125 4.75 2 4 C0.625 1.9375 0.625 1.9375 0 0 Z " fill="#2F2726" transform="translate(232,112)"/>
<path d="M0 0 C0.66 0 1.32 0 2 0 C0.55575365 3.23861303 -1.25772247 5.61969163 -3.625 8.25 C-4.25664062 8.95640625 -4.88828125 9.6628125 -5.5390625 10.390625 C-6.02117187 10.92171875 -6.50328125 11.4528125 -7 12 C-7.66 11.67 -8.32 11.34 -9 11 C-7.5489926 9.16086305 -6.08898341 7.3288247 -4.625 5.5 C-3.81289062 4.4790625 -3.00078125 3.458125 -2.1640625 2.40625 C-1.44992188 1.6121875 -0.73578125 0.818125 0 0 Z " fill="#3B3635" transform="translate(216,377)"/>
<path d="M0 0 C1.73745313 2.65728125 2.00831972 3.89600355 1.75 7.125 C1 10 1 10 -1 12 C-3.625 12.125 -3.625 12.125 -6 12 C-5.195625 11.319375 -4.39125 10.63875 -3.5625 9.9375 C-0.57711289 6.51522698 -0.26218749 4.4571874 0 0 Z " fill="#504C4C" transform="translate(180,389)"/>
<path d="M0 0 C3.63 0 7.26 0 11 0 C11 0.66 11 1.32 11 2 C5.06 2.495 5.06 2.495 -1 3 C-0.67 2.01 -0.34 1.02 0 0 Z " fill="#52504F" transform="translate(263,354)"/>
<path d="M0 0 C0 0.99 0 1.98 0 3 C-2.8125 5.75 -2.8125 5.75 -6 8 C-6.99 7.67 -7.98 7.34 -9 7 C-6.03 4.69 -3.06 2.38 0 0 Z " fill="#535151" transform="translate(311,350)"/>
<path d="M0 0 C0.66 0.33 1.32 0.66 2 1 C-0.64 3.97 -3.28 6.94 -6 10 C-6.66 9.34 -7.32 8.68 -8 8 C-5.36 5.36 -2.72 2.72 0 0 Z " fill="#32302F" transform="translate(277,383)"/>
<path d="M0 0 C0.33 0.99 0.66 1.98 1 3 C-0.43359375 5.04296875 -0.43359375 5.04296875 -2.4375 7.1875 C-3.09621094 7.90292969 -3.75492187 8.61835938 -4.43359375 9.35546875 C-4.95050781 9.89816406 -5.46742188 10.44085938 -6 11 C-6.66 10.67 -7.32 10.34 -8 10 C-5.36 6.7 -2.72 3.4 0 0 Z " fill="#DAD8D7" transform="translate(332,275)"/>
<path d="M0 0 C0.33 0.66 0.66 1.32 1 2 C0.06553465 4.03144641 -0.93224776 6.03533587 -2 8 C-3.5625 6.1875 -3.5625 6.1875 -5 4 C-4.67 3.01 -4.34 2.02 -4 1 C-1.9375 0.3125 -1.9375 0.3125 0 0 Z " fill="#3D3432" transform="translate(165,254)"/>
<path d="M0 0 C-0.33 1.32 -0.66 2.64 -1 4 C-2.65 4 -4.3 4 -6 4 C-6 2.68 -6 1.36 -6 0 C-2.25 -1.125 -2.25 -1.125 0 0 Z " fill="#1F1815" transform="translate(230,115)"/>
<path d="M0 0 C1.32 0.66 2.64 1.32 4 2 C2.768606 4.46278801 1.21935077 5.42497687 -1 7 C-1.33 6.34 -1.66 5.68 -2 5 C-1.0625 2.375 -1.0625 2.375 0 0 Z " fill="#3C3735" transform="translate(250,118)"/>
<path d="M0 0 C-1.15173355 2.46800047 -2.04783565 4.04783565 -4 6 C-6.125 5.625 -6.125 5.625 -8 5 C-2.25 0 -2.25 0 0 0 Z " fill="#494846" transform="translate(243,392)"/>
<path d="M0 0 C-0.33 0.66 -0.66 1.32 -1 2 C-3.64860427 2.59355614 -6.29197322 2.74209269 -9 3 C-9 2.34 -9 1.68 -9 1 C-6.04335481 -0.4783226 -3.25770263 -0.06032783 0 0 Z " fill="#4B494A" transform="translate(332,361)"/>
<path d="M0 0 C0.99 0.33 1.98 0.66 3 1 C1.35 2.65 -0.3 4.3 -2 6 C-2.99 5.67 -3.98 5.34 -5 5 C-3.35 3.35 -1.7 1.7 0 0 Z " fill="#3B3838" transform="translate(301,358)"/>
<path d="M0 0 C-2.91765 1.9451 -4.62537285 2.45276317 -8 3 C-7.67 2.01 -7.34 1.02 -7 0 C-4.3333581 -1.33332095 -2.83319697 -0.67102033 0 0 Z " fill="#545252" transform="translate(165,351)"/>
<path d="M0 0 C0.33 0.66 0.66 1.32 1 2 C1.66 2.33 2.32 2.66 3 3 C0.69 4.32 -1.62 5.64 -4 7 C-2.79618552 4.50638429 -1.54571278 2.31856917 0 0 Z " fill="#585755" transform="translate(349,273)"/>
</svg>
